<?xml version="1.0" encoding="UTF-8" standalone="no"?>
<!DOCTYPE svg PUBLIC "-//W3C//DTD SVG 1.1//EN" "http://www.w3.org/Graphics/SVG/1.1/DTD/svg11.dtd">
<svg version="1.1" xmlns="http://www.w3.org/2000/svg" xmlns:xlink="http://www.w3.org/1999/xlink" preserveAspectRatio="xMidYMid meet" viewBox="0 0 900 900" width="900" height="900"><defs><path d="M895 512.96C895 749.24 692.97 738.13 456.69 738.13C220.41 738.13 5 749.24 5 512.96C5 276.68 220.41 28.13 456.69 28.13C692.97 28.13 895 276.68 895 512.96Z" id="b1l0FvDVlA"></path><path d="M831.92 459.59C831.92 666.33 662.6 871.88 455.85 871.88C249.11 871.88 68.08 666.33 68.08 459.59C68.08 252.84 249.11 122.68 455.85 122.68C662.6 122.68 831.92 252.84 831.92 459.59Z" id="bBabEpAse"></path><path d="M187.89 583.28L191.42 585.01L195.08 586.66L198.84 588.23L202.72 589.73L206.71 591.14L210.8 592.47L214.99 593.72L219.27 594.88L223.65 595.95L228.11 596.93L232.66 597.82L237.29 598.61L241.99 599.3L246.77 599.89L251.61 600.37L256.52 600.76L261.48 601.03L266.51 601.2L271.58 601.26L276.66 601.2L281.68 601.03L286.65 600.76L291.55 600.37L296.4 599.89L301.17 599.3L305.88 598.61L310.5 597.82L315.05 596.93L319.52 595.95L323.89 594.88L328.18 593.72L332.37 592.47L336.46 591.14L340.44 589.73L344.32 588.23L348.09 586.66L351.56 585.09L350.12 586.8L348.12 588.99L346.01 591.11L343.78 593.17L341.45 595.17L339.01 597.11L336.47 598.97L333.83 600.77L331.1 602.5L328.27 604.15L325.36 605.72L322.36 607.22L319.27 608.63L316.11 609.97L312.86 611.21L309.55 612.37L306.16 613.44L302.7 614.42L299.18 615.31L295.6 616.1L291.96 616.79L288.27 617.38L284.52 617.87L280.72 618.25L276.87 618.53L272.99 618.69L269.06 618.75L265.13 618.69L261.24 618.53L257.4 618.25L253.6 617.87L249.85 617.38L246.15 616.79L242.51 616.1L238.93 615.31L235.41 614.42L231.96 613.44L228.57 612.37L225.25 611.21L222.01 609.97L218.84 608.63L215.76 607.22L212.76 605.72L209.84 604.15L207.02 602.5L204.28 600.77L201.64 598.97L199.11 597.11L196.67 595.17L194.34 593.17L192.11 591.11L190 588.99L188 586.8L186.11 584.56L184.35 582.27L183.36 580.84L184.48 581.48L187.89 583.28Z" id="a48A240ndb"></path><path d="M685.76 584.56L683.88 586.8L681.88 588.99L679.76 591.11L677.54 593.17L675.21 595.17L672.77 597.11L670.23 598.97L667.59 600.77L664.86 602.5L662.03 604.15L659.12 605.72L656.12 607.22L653.03 608.63L649.87 609.97L646.62 611.21L643.31 612.37L639.92 613.44L636.46 614.42L632.94 615.31L629.36 616.1L625.72 616.79L622.02 617.38L618.28 617.87L614.48 618.25L610.63 618.53L606.75 618.69L602.82 618.75L598.89 618.69L595 618.53L591.16 618.25L587.36 617.87L583.61 617.38L579.91 616.79L576.27 616.1L572.69 615.31L569.17 614.42L565.71 613.44L562.33 612.37L559.01 611.21L555.77 609.97L552.6 608.63L549.52 607.22L546.52 605.72L543.6 604.15L540.77 602.5L538.04 600.77L535.4 598.97L532.86 597.11L530.43 595.17L528.09 593.17L525.87 591.11L523.76 588.99L521.76 586.8L520.31 585.09L523.79 586.66L527.55 588.23L531.43 589.73L535.42 591.14L539.51 592.47L543.7 593.72L547.98 594.88L552.36 595.95L556.82 596.93L561.37 597.82L566 598.61L570.7 599.3L575.48 599.89L580.32 600.37L585.23 600.76L590.2 601.03L595.22 601.2L600.29 601.26L605.37 601.2L610.39 601.03L615.36 600.76L620.27 600.37L625.11 599.89L629.88 599.3L634.59 598.61L639.22 597.82L643.76 596.93L648.23 595.95L652.61 594.88L656.89 593.72L661.08 592.47L665.17 591.14L669.15 589.73L673.03 588.23L676.8 586.66L680.45 585.01L683.98 583.28L687.39 581.48L688.52 580.84L687.52 582.27L685.76 584.56Z" id="d7e10ofpM"></path><path d="M477.49 35.76L483.54 36.61L490.02 37.78L496.9 39.28L504.16 41.1L511.78 43.24L519.72 45.7L527.97 48.48L536.51 51.59L545.3 55.01L554.33 58.75L563.56 62.81L572.99 67.19L582.57 71.88L592.3 76.9L602.13 82.22L612.06 87.86L622.05 93.82L632.08 100.09L642.13 106.67L652.17 113.57L662.18 120.77L672.13 128.29L682 136.12L691.77 144.26L701.41 152.71L710.9 161.46L720.22 170.53L729.33 179.9L738.22 189.58L746.86 199.56L755.22 209.85L763.29 220.45L771.04 231.34L778.49 242.51L785.66 253.89L792.57 265.46L799.21 277.2L805.59 289.09L811.69 301.1L817.52 313.22L823.08 325.41L828.38 337.66L833.4 349.95L838.15 362.25L842.63 374.54L846.84 386.8L850.78 399L854.44 411.13L857.83 423.16L860.95 435.07L863.8 446.83L866.37 458.43L868.67 469.84L870.69 481.03L872.44 492L873.92 502.71L875.12 513.14L876.04 523.27L876.69 533.07L877.06 542.53L877.16 551.63L876.98 560.33L876.52 568.62L875.79 576.48L874.78 583.88L873.48 590.8L871.91 597.22L870.07 603.11L867.94 608.46L865.53 613.24L862.85 617.42L859.88 620.99L856.63 623.93L851.05 627.88L845.22 631.29L839.17 634.19L832.88 636.57L826.38 638.44L819.67 639.8L812.76 640.67L805.65 641.04L798.35 640.93L790.87 640.34L783.21 639.28L775.39 637.75L767.42 635.76L759.29 633.31L751.01 630.41L742.6 627.08L734.06 623.3L725.39 619.09L716.62 614.46L707.73 609.41L698.74 603.95L689.66 598.08L680.5 591.81L671.25 585.15L661.94 578.1L652.56 570.66L643.13 562.85L633.65 554.68L624.12 546.13L614.57 537.23L604.98 527.98L595.38 518.38L585.76 508.45L576.14 498.18L566.52 487.58L556.91 476.66L547.32 465.43L537.76 453.88L528.22 442.04L518.73 429.9L509.46 417.6L500.6 405.28L492.16 392.96L484.12 380.65L476.49 368.36L469.26 356.1L462.43 343.88L456 331.71L449.96 319.61L444.33 307.58L439.08 295.65L434.23 283.81L429.77 272.08L425.69 260.47L423.1 252.41L422.48 253.3L416.25 262.11L409.85 271.03L403.29 280.04L396.6 289.14L389.77 298.32L382.83 307.58L375.77 316.9L368.62 326.3L361.38 335.75L354.07 345.26L346.59 354.77L338.88 364.24L330.95 373.65L322.82 382.98L314.51 392.23L306.02 401.37L297.38 410.39L288.6 419.28L279.7 428.03L270.7 436.61L261.62 445.02L252.46 453.24L243.26 461.26L234.01 469.06L224.75 476.63L215.49 483.95L206.23 491.01L197.01 497.79L187.84 504.29L178.73 510.48L169.7 516.36L160.77 521.9L151.95 527.1L143.27 531.94L134.73 536.4L126.35 540.47L118.16 544.14L110.16 547.39L102.38 550.21L94.83 552.58L87.53 554.49L80.49 555.93L73.73 556.88L67.27 557.32L61.12 557.25L55.31 556.65L49.84 555.49L44.74 553.78L40.01 551.5L35.69 548.62L34.33 547.3L33.1 545.56L32 543.41L31.03 540.87L30.2 537.93L29.5 534.63L28.93 530.97L28.51 526.96L28.21 522.62L28.06 517.96L28.04 513L28.16 507.74L28.42 502.2L28.83 496.4L29.37 490.35L30.06 484.06L30.89 477.54L31.87 470.8L32.99 463.87L34.26 456.75L35.67 449.46L37.24 442L38.95 434.4L40.81 426.67L42.82 418.81L44.99 410.85L47.31 402.79L49.78 394.65L52.41 386.44L55.19 378.18L58.13 369.88L61.22 361.55L64.47 353.2L67.89 344.85L71.46 336.51L75.19 328.2L79.09 319.92L83.14 311.7L87.36 303.54L91.75 295.45L93.87 291.77L96.11 288.14L98.48 284.54L100.96 280.97L103.56 277.45L106.25 273.96L109.04 270.5L111.92 267.08L114.89 263.69L117.94 260.34L121.05 257.01L124.24 253.72L127.48 250.45L130.78 247.22L134.13 244.01L137.52 240.82L140.95 237.67L144.41 234.53L147.89 231.43L151.4 228.34L154.91 225.28L158.43 222.24L161.95 219.21L165.47 216.21L168.97 213.23L172.46 210.26L175.92 207.31L179.35 204.37L182.75 201.45L186.11 198.55L189.42 195.65L192.67 192.77L195.87 189.9L198.99 187.04L202.05 184.19L205.03 181.34L207.93 178.51L210.73 175.68L213.44 172.86L216.05 170.04L224.19 161.3L232.39 152.96L240.64 145.02L248.93 137.46L257.23 130.29L265.56 123.49L273.88 117.05L282.2 110.98L290.5 105.25L298.76 99.87L306.99 94.82L315.16 90.11L323.27 85.71L331.31 81.63L339.26 77.86L347.11 74.39L354.86 71.21L362.49 68.31L369.98 65.69L377.34 63.34L384.54 61.26L391.59 59.43L398.45 57.84L405.14 56.5L411.62 55.4L417.91 54.52L423.97 53.85L429.8 53.4L434.49 53.19L438.88 48.2L443.84 43.36L449.14 38.93L451.52 37.5L454.5 36.39L458.05 35.61L462.15 35.16L466.77 35.03L471.89 35.23L477.49 35.76Z" id="k2kQzVBiph"></path></defs><g><g><g><use xlink:href="#b1l0FvDVlA" opacity="1" fill="#8e8dbf" fill-opacity="1"></use></g><g><use xlink:href="#bBabEpAse" opacity="1" fill="#dfdeed" fill-opacity="1"></use></g><g><use xlink:href="#a48A240ndb" opacity="1" fill="#8e8dbf" fill-opacity="1"></use></g><g><use xlink:href="#d7e10ofpM" opacity="1" fill="#8e8dbf" fill-opacity="1"></use></g><g><use xlink:href="#k2kQzVBiph" opacity="1" fill="#8e8dbf" fill-opacity="1"></use></g></g></g></svg>